<svg width="34.000000" height="26.225769" viewBox="0 0 34 26.2258" fill="none" xmlns="http://www.w3.org/2000/svg" xmlns:xlink="http://www.w3.org/1999/xlink">
	<desc>
			Created with Pixso.
	</desc>
	<defs/>
	<path id="Vector" d="M5.67188 21.4525L6.07031 23.0614C6.57422 25.1531 7.67578 26.2258 9.86328 26.2258L24.1367 26.2258C26.3398 26.2258 27.4258 25.1799 27.9414 23.0614L28.3398 21.4525L5.67188 21.4525ZM5.23438 19.6156L28.7891 19.6156L31.2812 9.29163L30.1953 8.66144L24.0859 13.1665C23.6328 13.4883 23.3281 13.3676 23.0781 13.0056L17.3242 4.21008L16.6875 4.18323L10.8828 13.0458C10.6562 13.3944 10.3906 13.5017 9.94141 13.1799L3.94922 8.75531L2.67578 9.09052L5.23438 19.6156ZM3.16797 11.9731C4.91797 11.9731 6.32422 10.5386 6.32422 8.75531C6.32422 7.01233 4.91797 5.56427 3.16797 5.56427C1.41797 5.56427 0 6.9989 0 8.75531C0 10.5386 1.42969 11.9731 3.16797 11.9731ZM17.0078 6.39551C18.7422 6.39551 20.1602 4.96088 20.1602 3.19104C20.1602 1.44806 18.7422 0 17.0078 0C15.2422 0 13.8398 1.43463 13.8398 3.19104C13.8398 4.96088 15.2578 6.39551 17.0078 6.39551ZM30.832 11.9731C32.5703 11.9731 34 10.5386 34 8.75531C34 6.9989 32.582 5.56427 30.832 5.56427C29.0938 5.56427 27.6758 7.01233 27.6758 8.75531C27.6758 10.5386 29.0938 11.9731 30.832 11.9731Z" fill="#FF9500" fill-opacity="1.000000" fill-rule="nonzero"/>
</svg>
