<svg width="10.000000" height="10.000000" viewBox="0 0 10 10" fill="none" xmlns="http://www.w3.org/2000/svg" xmlns:xlink="http://www.w3.org/1999/xlink">
	<desc>
			Created with Pixso.
	</desc>
	<defs/>
	<path id="Union" d="M1.28125 0.219727C0.988281 -0.0732422 0.511719 -0.0732422 0.21875 0.219727C-0.0742188 0.512573 -0.0742188 0.987427 0.21875 1.28027L3.9375 5L0.21875 8.71973C-0.0742188 9.01257 -0.0742188 9.48743 0.21875 9.78027C0.511719 10.0732 0.988281 10.0732 1.28125 9.78027L5 6.06067L8.71875 9.78027C9.01172 10.0732 9.48828 10.0732 9.78125 9.78027C10.0742 9.48743 10.0742 9.01257 9.78125 8.71973L6.0625 5L9.78125 1.28027C10.0742 0.987427 10.0742 0.512573 9.78125 0.219727C9.48828 -0.0732422 9.01172 -0.0732422 8.71875 0.219727L5 3.93933L1.28125 0.219727Z" fill="#262626" fill-opacity="1.000000" fill-rule="nonzero"/>
</svg>
